<svg width="64" height="64" viewBox="0 0 64 64" fill="none" xmlns="http://www.w3.org/2000/svg">
<g clip-path="url(#clip0_35527_32231)">
<path d="M64 32C64 14.3269 49.6731 0 32 0C14.3269 0 0 14.3269 0 32C0 49.6731 14.3269 64 32 64C49.6731 64 64 49.6731 64 32Z" fill="url(#paint0_linear_35527_32231)"/>
<path opacity="0.2" d="M32 0C14.3269 0 0 14.3269 0 32C0 49.6731 14.3269 64 32 64C34.6017 64 37.1308 63.6895 39.5524 63.1036L48.2456 4.42454C43.4837 1.61314 37.9303 0 32 0Z" fill="url(#paint1_linear_35527_32231)"/>
</g>
<path fill-rule="evenodd" clip-rule="evenodd" d="M45.0854 35.1512L46.9971 33.5169C47.9321 32.7193 47.9321 31.2739 46.9971 30.4764L45.0854 28.842C44.5137 28.3537 44.2658 27.5856 44.44 26.8543L45.0265 24.4101C45.3137 23.2126 44.4621 22.0445 43.2376 21.9488L40.7321 21.7525C39.9836 21.6936 39.3284 21.2175 39.0413 20.523L38.0818 18.204C37.6106 17.0678 36.2339 16.6212 35.1861 17.2641L33.0462 18.577C32.4032 18.9721 31.5959 18.9721 30.9529 18.577L28.8131 17.2641C27.7627 16.6187 26.3885 17.0678 25.9173 18.204L24.9578 20.523C24.6707 21.2175 24.018 21.6936 23.267 21.7525L20.7615 21.9488C19.5345 22.047 18.6854 23.2151 18.9726 24.4101L19.5591 26.8543C19.7333 27.5856 19.4854 28.3537 18.9137 28.842L17.002 30.4764C16.067 31.2739 16.067 32.7193 17.002 33.5169L18.9137 35.1512C19.4854 35.6396 19.7333 36.4077 19.5591 37.139L18.9726 39.5832C18.6854 40.7807 19.537 41.9488 20.7615 42.0445L23.267 42.2408C24.0155 42.2997 24.6707 42.7758 24.9578 43.4703L25.9173 45.7893C26.3885 46.9255 27.7652 47.3721 28.8131 46.7292L30.9529 45.4163C31.5959 45.0212 32.4032 45.0212 33.0462 45.4163L35.1861 46.7292C36.2364 47.3746 37.6106 46.9255 38.0818 45.7893L39.0413 43.4703C39.3284 42.7758 39.9811 42.2997 40.7321 42.2408L43.2376 42.0445C44.4646 41.9463 45.3137 40.7782 45.0265 39.5832L44.44 37.139C44.2658 36.4077 44.5137 35.6396 45.0854 35.1512ZM30.3486 33.7223L37.5094 26.5444L39.8897 28.9052L30.3486 38.4487L25.1118 33.1972L27.4726 30.8315L30.3486 33.7223Z" fill="url(#paint2_linear_35527_32231)"/>
<defs>
<linearGradient id="paint0_linear_35527_32231" x1="32" y1="0" x2="32" y2="64" gradientUnits="userSpaceOnUse">
<stop stop-color="#EAFAE8"/>
<stop offset="1" stop-color="#D4EFCF"/>
</linearGradient>
<linearGradient id="paint1_linear_35527_32231" x1="25.6357" y1="0" x2="25.6357" y2="64" gradientUnits="userSpaceOnUse">
<stop stop-color="#16A750"/>
<stop offset="1" stop-color="#16A850" stop-opacity="0"/>
</linearGradient>
<linearGradient id="paint2_linear_35527_32231" x1="31.9996" y1="16.9673" x2="31.9996" y2="47.026" gradientUnits="userSpaceOnUse">
<stop stop-color="#16AA51"/>
<stop offset="1" stop-color="#0F8940"/>
</linearGradient>
<clipPath id="clip0_35527_32231">
<rect width="64" height="64" fill="white"/>
</clipPath>
</defs>
</svg>
